<svg version="1.1" id="Outline" xmlns="http://www.w3.org/2000/svg" x="0" y="0" viewBox="0 0 512 512" xml:space="preserve"><style>.st0{fill:#329f9d}</style><path class="st0" d="M457.3 80l-61.6-32.7-7.5 14.1L451.5 95c1.2.6 2.4.9 3.7.9h40V80h-37.9z"/><path class="st0" d="M454.6 160l-48.1 4.4c-22.6 2-44.8-6.7-60-23.5l-24.9-27.7c-7.8-8.7-8.2-21.6-1.1-30.8l42.4 28.3c3.7 2.5 8.6 1.5 11.1-2.1s1.5-8.6-2.1-11.1l-.1-.1-48-32c-1.3-.9-2.9-1.3-4.5-1.3h-88c-18.9 0-35.1-13.4-38.7-32h140l39.6 21 7.5-14.1-41.3-21.9c-1.2-.6-2.4-.9-3.7-.9H184c-4.4 0-7.9 3.5-8 7.9-.4 30.6 24 55.7 54.6 56.1h72.7c-6.9 14.6-4.4 31.9 6.4 43.9l24.9 27.7c16.7 18.5 40.5 29.1 65.5 29.1 2.6 0 5.2-.1 7.9-.4l47.7-4.3h39.6v-16h-40c-.2-.2-.4-.2-.7-.2zM280.7 432H248v16h32.7c18.9 0 35.1 13.4 38.7 32h-140l-119-63.1c-1.2-.6-2.4-.9-3.7-.9h-40v16h38l118.9 63.1c1.2.6 2.4.9 3.7.9H328c4.4 0 7.9-3.5 8-7.9.4-30.6-24-55.7-54.6-56.1h-.7z"/><path class="st0" d="M57.4 352l48.1-4.4c22.6-2 44.8 6.7 60 23.5l24.9 27.7c7.8 8.7 8.2 21.6 1.1 30.8l-42.4-28.3c-3.7-2.5-8.6-1.5-11.1 2.1-2.5 3.7-1.5 8.6 2.1 11.1l.1.1 48 32c1.3.9 2.8 1.3 4.4 1.3H232v-16h-23.3c6.9-14.6 4.4-31.9-6.4-43.9l-24.9-27.7c-18.6-20.6-45.8-31.2-73.4-28.8L56.3 336H16.7v16h40.7zM288 152h-64c-4.4 0-8 3.6-8 8v56h-16v16h24c4.4 0 8-3.6 8-8v-56h48v56c0 4.4 3.6 8 8 8h56v48h-56c-4.4 0-8 3.6-8 8v56h-48v-56c0-4.4-3.6-8-8-8h-56v-48h16v-16h-24c-4.4 0-8 3.6-8 8v64c0 4.4 3.6 8 8 8h56v56c0 4.4 3.6 8 8 8h64c4.4 0 8-3.6 8-8v-56h56c4.4 0 8-3.6 8-8v-64c0-4.4-3.6-8-8-8h-56v-56c0-4.4-3.6-8-8-8z"/><path class="st0" d="M104 256c0 17 2.8 33.9 8.4 50l15.1-5.3c-5-14.4-7.6-29.5-7.6-44.7 0-75 61-136 136-136 5.1 0 10.1.3 15.1.8l1.8-15.9c-5.6-.6-11.2-.9-16.9-.9-83.7 0-151.9 68.2-151.9 152zM256 392c-5.1 0-10.1-.3-15.1-.8l-1.8 15.9c5.6.6 11.2.9 16.9.9 83.8 0 152-68.2 152-152 0-17-2.8-33.9-8.4-50l-15.1 5.3c5 14.4 7.6 29.5 7.6 44.7C392 331 331 392 256 392z"/><path class="st0" d="M428.9 201.6c-2.6 2-3.8 5.3-3 8.5 21.1 78.6-14.3 161.5-85.8 200.5l7.7 14c71.7-39.1 110.8-119.2 97.6-199.8l22.3 13.9 8.5-13.6-38.3-24c-2.8-1.6-6.3-1.5-9 .5zM76.4 304c4.4 0 8-3.6 8-8 0-.6-.1-1.2-.2-1.7-17.8-79.8 21.7-161.3 95.3-196.8l-7-14.4c-74.6 36-117.6 115.9-106.9 198L35.8 265l-7.6 14 44.4 24c1.1.7 2.4 1 3.8 1z"/></svg>