<svg xmlns="http://www.w3.org/2000/svg" width="515.14" height="452.606" viewBox="0 0 515.13989 452.60641"><path d="M314.784 308.624c-.093-10.462.408-21.474.526-32.863.04-3.607-.615-8.33.263-11.04.394-1.214 3.186-2.942 4.468-3.944 23-17.938 40.494-43.216 42.065-83.075.392-9.937-2.688-19.373-7.623-26.288-6.946-9.734-19.153-18.71-37.594-17.35-9.643.71-18.05 5.508-24.187 11.303-6.23 5.886-10.818 12.324-12.617 23.136-1.73 10.385-1.315 22-1.315 33.124 0 5.58-.103 11.206-.264 16.564-.155 5.17.507 10.806-.525 15.773-1.564 7.518-9.447 14.443-16.302 15.248-12.694 1.494-21.28-7.066-22.345-17.35-.43-4.158-.063-8.826 0-13.145.178-11.998.597-25.025.79-37.593.25-16.452 3.09-31.12 9.463-43.115 12.148-22.867 34.968-41.342 66.776-43.38 24.043-1.538 41.442 7.604 54.42 17.615 13.144 10.14 23.89 25.316 28.392 43.38 4.47 17.933 2.01 38.44-1.578 54.155-7.427 32.538-24.048 57.143-45.742 75.715-5.44 4.654-11.106 9.32-17.352 13.144-6.184 3.784-12.566 7.687-19.718 9.99zm-206.05-142.728c12.457.383 26.18.15 39.93.826.775 38.152 15.8 64.136 36.903 82.89 19.973 17.757 51.883 31.863 89.224 25.614-.354 28-1.072 54.425-1.375 82.064-13.436 1.373-28.212 1.05-40.757-.55.122-14.788.542-27.46.55-40.758-29.318-4.973-52.646-16.997-71.6-32.77-30.468-25.357-52.71-63.005-53.425-116.49-.012-.47.204-.714.55-.826zM25.262 281.642c11.022 1.625 23.753-7.578 22.763-21.39-11.59.75-16.894 7.79-20.02 17.002-2.02-9.588-8.366-14.854-18.65-16.18v8.502c3.142 5.838 8.822 11.024 15.907 12.066zm85.856-239.23c2.93-.66 5.817-2.17 7.55-4.355-4.758-6.644-16.04-9.756-25.368-5.402 5.42-5.275 6.298-19.263.134-25.65-16.574 10.82-5.632 40.65 17.684 35.407zm-70.535 120.275c2.78-2.68 4.333-5.89 5.715-10.143l-.2-.8c-9.785-2.53-20.37 4.928-23.143 11.58-1.116-11.995-8.793-18.397-16.79-19.05-.693 3.723-1.06 6.608.8 11.377 4.905 12.552 22.926 17.366 33.618 7.037zm39.165-81.86c-5.175-6-19.473-5.082-26.212 1.424 4.076-7.032.012-21.34-7.01-24.82-4.288 4.547-5.77 11.887-2.76 19.618 5.477 14.066 26.717 16.893 35.982 3.778zm-33.955 58.923c2.776-2.684 4.33-5.895 5.705-10.15l-.196-.8c-9.79-2.52-20.367 4.942-23.138 11.597-1.125-11.992-8.803-18.388-16.806-19.038-.688 3.726-1.055 6.608.81 11.377 4.913 12.547 22.94 17.348 33.625 7.014zm8.3-32.713c7.025-1.102 14.53-6.39 15.193-11.318.023-.168-.144-.363-.136-.53-4.933-1.597-10.01-2.527-15.97-.384-3.744 1.345-6.246 3.9-8.993 5.74 2.27-9.11-4.01-20.63-11.255-22.578-7.973 14.224 5.425 31.542 21.162 29.07zm6.105 5.984c.206-.085.288-.265.208-.576-7.51-4.663-20.747-.63-25.34 5.227 2.04-10.075-3.245-19.782-11.232-22.413-1.39 2.432-2.363 4.986-2.36 8.016.035 23.705 30.84 26.91 38.724 9.748zm31.12-47.493c-4.62-6.438-18.942-6.79-26.232-.906 4.682-6.644 1.904-21.256-4.784-25.347-4.67 4.15-6.798 11.33-4.488 19.3 4.21 14.495 25.115 19.194 35.505 6.954zm4.844-8.775c2.932-.655 5.82-2.166 7.555-4.35-4.75-6.646-16.033-9.766-25.362-5.42 5.424-5.274 6.315-19.26.157-25.655-16.585 10.805-5.67 40.646 17.65 35.425zm-79.2 136.047c11.02 1.625 23.752-7.578 22.763-21.39-11.592.75-16.894 7.79-20.02 17.002-2.022-9.588-8.367-14.854-18.65-16.18v8.502c3.14 5.838 8.82 11.024 15.907 12.066zm-1.055 22.55c11.022 1.624 23.753-7.58 22.764-21.39-11.59.75-16.894 7.788-20.02 17-2.02-9.587-8.366-14.853-18.65-16.18v8.503c3.142 5.838 8.822 11.024 15.907 12.066zm3.473 22.05c11.022 1.625 23.753-7.578 22.764-21.39-11.592.75-16.895 7.79-20.02 17.002-2.022-9.588-8.367-14.854-18.65-16.18v8.502c3.14 5.838 8.82 11.024 15.906 12.066zm51.976 81.493c-.357-2.982-1.566-6.008-3.566-7.953-7.092 4.055-11.336 14.963-7.953 24.684-4.698-5.928-18.523-8.225-25.506-2.744 9.078 17.59 39.867 9.74 37.026-13.987zm10.48 16.028c-.36-2.982-1.568-6.008-3.567-7.953-7.093 4.055-11.338 14.963-7.954 24.684-4.698-5.928-18.523-8.225-25.507-2.744 9.077 17.59 39.865 9.74 37.025-13.987zm11.667 15.064c-.357-2.982-1.566-6.008-3.566-7.953-7.092 4.055-11.336 14.963-7.953 24.684-4.698-5.928-18.523-8.225-25.506-2.744 9.077 17.59 39.866 9.74 37.025-13.987zm125.037 71.417c-1.947-3.336-4.696-5.607-8.5-7.955h-.824c-4.778 8.907-.044 20.958 5.76 25.232-11.915-1.762-19.954 4.177-22.49 11.793 3.456 1.556 6.17 2.6 11.244 1.92 13.358-1.788 22.307-18.153 14.81-30.99zm-84.003-38.27c-7.07 3.573-9.627 17.673-4.937 25.78-5.842-5.65-20.708-5.156-25.78.822 3.38 5.256 10.147 8.463 18.375 7.407 14.97-1.926 22.835-21.858 12.342-34.01zm-112.367-122.662c11.022 1.625 23.753-7.578 22.764-21.39-11.592.75-16.895 7.79-20.02 17.002-2.022-9.588-8.367-14.854-18.65-16.18v8.502c3.14 5.838 8.82 11.024 15.907 12.066zm171.614 154.027c-1.947-3.335-4.696-5.606-8.5-7.954h-.824c-4.778 8.908-.044 20.96 5.76 25.233-11.915-1.762-19.954 4.177-22.49 11.793 3.455 1.555 6.17 2.598 11.244 1.92 13.358-1.79 22.307-18.154 14.81-30.992zm-38.507-3.146c.7-7.075-2.53-15.67-7.13-17.552-.157-.064-.387.05-.55 0-2.783 4.37-4.96 9.05-4.387 15.36.36 3.96 2.2 7.025 3.29 10.146-8.244-4.49-20.974-1.31-24.682 5.21 11.76 11.298 31.893 2.688 33.46-13.163zm-105.377-114.475c3.868-4.098 6.045-9.916 5.21-17.826-10.333 1.917-15.778 8.72-17.553 19.196-3.576-7.762-10.05-14.082-21.94-12.615v3.016c3.512 14.577 24.14 18.97 34.282 8.23zm117.11 105.007c-.06-.214-.228-.318-.547-.275-5.52 6.91-3.078 20.527 2.194 25.78-9.766-3.218-20.03.882-23.586 8.503 2.25 1.666 4.67 2.936 7.68 3.29 23.543 2.77 30.37-27.44 14.26-37.298zm-49.15-31.477c-7.072 3.574-9.628 17.674-4.937 25.78-5.843-5.65-20.708-5.155-25.78.823 3.38 5.256 10.147 8.463 18.375 7.407 14.97-1.926 22.835-21.858 12.342-34.01zm-10.36-5.164c-.358-2.982-1.567-6.008-3.567-7.953-7.092 4.055-11.337 14.963-7.953 24.684-4.698-5.927-18.523-8.224-25.507-2.743 9.078 17.59 39.867 9.74 37.026-13.986zm-44.463-65.016c-.125-1.443-.394-3.457-1.646-4.664-8.872 3.004-14.115 10.612-13.985 21.942-3.687-7.34-12.623-13.01-23.86-10.147 1.98 7.67 7.088 12.942 14.535 14.535 13.316 2.85 26.104-8.406 24.957-21.666zm426.841-18.584c-11.022 1.625-23.753-7.578-22.763-21.39 11.59.75 16.894 7.79 20.02 17.002 2.02-9.588 8.366-14.854 18.65-16.18v8.502c-3.142 5.838-8.822 11.024-15.907 12.066zm-85.855-239.23c-2.93-.658-5.817-2.17-7.55-4.356 4.757-6.642 16.04-9.755 25.367-5.4-5.42-5.276-6.298-19.263-.134-25.653 16.573 10.82 5.632 40.65-17.683 35.41zm70.532 120.276c-2.778-2.683-4.333-5.892-5.71-10.145l.194-.8c9.786-2.53 20.37 4.928 23.146 11.58 1.114-11.993 8.79-18.394 16.79-19.05.692 3.724 1.062 6.61-.8 11.377-4.906 12.553-22.927 17.366-33.62 7.038zm-39.163-81.86c5.174-6.003 19.474-5.084 26.21 1.423-4.074-7.032-.01-21.34 7.014-24.822 4.286 4.55 5.767 11.89 2.758 19.62-5.477 14.064-26.718 16.892-35.982 3.78zm33.955 58.923c-2.777-2.684-4.33-5.895-5.705-10.15l.196-.798c9.79-2.522 20.368 4.942 23.14 11.595 1.12-11.99 8.802-18.387 16.803-19.04.69 3.727 1.058 6.612-.81 11.38-4.912 12.548-22.936 17.348-33.623 7.014zm-8.3-32.712c-7.025-1.105-14.53-6.392-15.194-11.318-.022-.168.145-.362.138-.532 4.932-1.594 10.01-2.523 15.97-.38 3.743 1.344 6.246 3.896 8.992 5.737-2.27-9.11 4.01-20.63 11.255-22.577 7.974 14.225-5.425 31.543-21.16 29.07zm-6.105 5.982c-.206-.085-.29-.265-.208-.576 7.514-4.664 20.747-.628 25.34 5.228-2.04-10.078 3.244-19.786 11.233-22.414 1.388 2.43 2.362 4.984 2.357 8.014-.033 23.706-30.84 26.91-38.722 9.748zm-31.122-47.494c4.62-6.437 18.946-6.79 26.233-.907-4.682-6.643-1.904-21.255 4.784-25.347 4.672 4.152 6.8 11.33 4.488 19.298-4.21 14.496-25.115 19.197-35.505 6.957zm-4.843-8.775c-2.93-.656-5.82-2.164-7.553-4.35 4.75-6.646 16.03-9.77 25.36-5.42-5.423-5.274-6.313-19.26-.155-25.654 16.582 10.806 5.666 40.645-17.653 35.424zm79.2 136.048c-11.02 1.625-23.75-7.578-22.762-21.39 11.592.75 16.894 7.79 20.02 17.002 2.022-9.588 8.367-14.854 18.65-16.18v8.502c-3.14 5.838-8.82 11.024-15.907 12.066zm1.056 22.55c-11.022 1.624-23.753-7.58-22.764-21.39 11.59.75 16.894 7.788 20.02 17 2.02-9.587 8.366-14.853 18.65-16.18v8.503c-3.142 5.838-8.822 11.024-15.907 12.066zm-3.473 22.05c-11.022 1.625-23.753-7.578-22.764-21.39 11.592.75 16.895 7.79 20.02 17.002 2.022-9.588 8.367-14.854 18.65-16.18v8.502c-3.14 5.838-8.82 11.024-15.907 12.066zm-51.976 81.493c.357-2.982 1.566-6.008 3.566-7.953 7.092 4.055 11.336 14.963 7.953 24.684 4.698-5.928 18.523-8.225 25.506-2.744-9.078 17.59-39.867 9.74-37.026-13.987zm-10.48 16.028c.36-2.982 1.568-6.008 3.567-7.953 7.093 4.055 11.338 14.963 7.954 24.684 4.698-5.928 18.523-8.225 25.507-2.744-9.077 17.59-39.866 9.74-37.025-13.987zm-11.667 15.064c.357-2.982 1.566-6.008 3.566-7.953 7.092 4.055 11.336 14.963 7.953 24.684 4.698-5.928 18.523-8.225 25.506-2.744-9.078 17.59-39.866 9.74-37.025-13.987zm-125.037 71.419c1.947-3.336 4.696-5.607 8.5-7.955h.823c4.78 8.907.045 20.958-5.758 25.232 11.914-1.762 19.953 4.177 22.49 11.793-3.457 1.556-6.17 2.6-11.245 1.92-13.358-1.788-22.307-18.153-14.81-30.99zm84.002-38.27c7.072 3.573 9.628 17.673 4.938 25.78 5.842-5.65 20.708-5.156 25.78.822-3.38 5.256-10.147 8.463-18.375 7.407-14.97-1.926-22.836-21.858-12.343-34.01zm112.368-122.664c-11.022 1.625-23.753-7.578-22.764-21.39 11.592.75 16.894 7.79 20.02 17.002 2.022-9.588 8.367-14.854 18.65-16.18v8.502c-3.14 5.838-8.82 11.024-15.907 12.066zm-171.615 154.028c1.947-3.336 4.696-5.607 8.5-7.955h.824c4.778 8.908.044 20.96-5.76 25.233 11.915-1.762 19.954 4.177 22.49 11.793-3.455 1.555-6.17 2.598-11.244 1.92-13.358-1.79-22.307-18.154-14.81-30.992zm38.507-3.147c-.7-7.075 2.53-15.67 7.13-17.552.157-.064.387.05.55 0 2.783 4.37 4.96 9.05 4.387 15.36-.36 3.96-2.2 7.025-3.29 10.146 8.244-4.49 20.974-1.31 24.682 5.21-11.76 11.298-31.893 2.688-33.46-13.163zm105.378-114.475c-3.868-4.098-6.046-9.916-5.21-17.826 10.333 1.917 15.778 8.72 17.553 19.196 3.576-7.762 10.05-14.082 21.94-12.615v3.016c-3.512 14.577-24.14 18.97-34.282 8.23zm-117.11 105.006c.06-.214.228-.318.547-.275 5.52 6.91 3.078 20.527-2.194 25.78 9.766-3.218 20.03.882 23.586 8.503-2.25 1.666-4.67 2.936-7.68 3.29-23.543 2.77-30.37-27.44-14.26-37.298zm49.15-31.477c7.07 3.574 9.627 17.674 4.937 25.78 5.842-5.65 20.708-5.155 25.78.823-3.38 5.256-10.147 8.463-18.375 7.407-14.97-1.926-22.835-21.858-12.342-34.01zm10.36-5.164c.358-2.982 1.567-6.008 3.567-7.953 7.092 4.055 11.336 14.963 7.953 24.684 4.698-5.927 18.523-8.224 25.506-2.743-9.077 17.59-39.866 9.74-37.025-13.986zm44.462-65.016c.125-1.443.395-3.457 1.647-4.664 8.872 3.004 14.114 10.612 13.985 21.942 3.687-7.34 12.622-13.01 23.86-10.147-1.98 7.67-7.088 12.942-14.535 14.535-13.317 2.85-26.104-8.406-24.958-21.666zM205.13 395.414l1.185-5.138 6.437 1.486 4.81-20.838 6.165 1.423-4.81 20.84 6.47 1.492-1.187 5.137zm-21.922-12.64l12.02 4.14 1.78-5.17-9.455-3.256 1.635-4.746 9.455 3.255 1.895-5.503-12.02-4.14 1.716-4.985 18.028 6.207-8.68 25.207-18.027-6.207zm-5.244-16.42l4.648-8.742 5.61 2.983-12.516 23.54-9.283-4.937c-2.067-1.098-3.53-2.164-4.397-3.19-.86-1.024-1.424-2.335-1.676-3.934-.26-1.596.05-3.22.933-4.88a9.946 9.946 0 0 1 2.495-3.03c1.044-.856 2.16-1.38 3.332-1.566 1.176-.182 2.214-.174 3.112.04.9.213 2.185.76 3.863 1.653zm-2.08 4.382l-3.592-1.91c-1.365-.725-2.494-.918-3.382-.582-.888.336-1.553.918-1.985 1.73-.507.955-.6 1.88-.287 2.77.318.894 1.1 1.665 2.354 2.332l3.573 1.9zm-20.085-17.78l5.818-8.01 5.14 3.735-15.67 21.57-8.506-6.18c-1.893-1.376-3.195-2.635-3.91-3.772-.71-1.133-1.085-2.51-1.112-4.13-.037-1.616.498-3.18 1.603-4.7a9.944 9.944 0 0 1 2.892-2.655c1.154-.702 2.332-1.066 3.518-1.086 1.19-.017 2.217.135 3.076.472.86.335 2.057 1.057 3.594 2.174zm-2.672 4.05l-3.29-2.39c-1.252-.91-2.342-1.257-3.268-1.048-.927.21-1.666.694-2.207 1.438-.635.874-.854 1.777-.67 2.702.19.93.858 1.802 2.007 2.637l3.274 2.38zm-12.44-26.17l1.835-1.9 4.412 4.262-18.52 19.177-4.41-4.26 7.895-8.177a98.51 98.51 0 0 1 4.237-4.138c-2.313.936-4.306 1.56-5.974 1.886l-10.77 2.12-1.926 1.996-4.412-4.26 18.52-19.178 4.412 4.26-8.41 8.71c-1.413 1.462-2.604 2.62-3.584 3.46 1.998-.85 3.99-1.473 5.974-1.857zm-43.621-14.006l4.156-3.246 4.068 5.206 16.853-13.167 3.896 4.986-16.853 13.165 4.088 5.233-4.154 3.246zm15.44-27.89c1.742 3.14 1.906 6.23.504 9.255-1.403 3.025-3.78 5.463-7.132 7.32-3.405 1.89-6.726 2.594-9.973 2.114-3.24-.483-5.76-2.334-7.547-5.558-1.803-3.254-1.95-6.39-.435-9.394 1.513-3.003 3.836-5.373 6.967-7.11 3.382-1.873 6.708-2.596 9.978-2.184 3.268.423 5.818 2.272 7.637 5.555zm-19.667 10.694c1.593 2.875 4.907 2.913 9.94.124 5.043-2.796 6.772-5.63 5.18-8.504-1.54-2.776-4.83-2.774-9.863.016-5.043 2.796-6.795 5.59-5.257 8.364zm-.044-27.854l9.242-3.548 2.277 5.932-24.89 9.554-3.767-9.815c-.838-2.185-1.245-3.95-1.225-5.293.024-1.337.46-2.696 1.318-4.068.85-1.376 2.15-2.397 3.905-3.07a9.942 9.942 0 0 1 3.87-.65c1.35.038 2.537.375 3.543 1.003 1.007.634 1.785 1.32 2.323 2.07.537.752 1.15 2.01 1.83 3.784zm-4.446 1.943l-1.457-3.797c-.554-1.444-1.28-2.33-2.17-2.66-.89-.328-1.774-.325-2.633.005-1.01.388-1.685 1.026-2.034 1.903-.346.883-.262 1.978.247 3.304l1.45 3.778zm3.647-28.328l2.582-.55 1.275 6-26.077 5.543-1.275-6 11.118-2.362a98.5 98.5 0 0 1 5.827-1.062c-2.44-.517-4.443-1.114-6.008-1.776l-10.114-4.264-2.712.577-1.275-6 26.078-5.54 1.275 5.998-11.842 2.517c-1.99.423-3.624.716-4.907.866 2.13.413 4.132 1.01 5.99 1.8zm-28.408-32.635l26.012-10.18.47 6.703-5.36 2 .602 8.61 5.59 1.294.382 5.454-27.19-6.652zm16.704 5.975l-.395-5.646-9.133 3.47zm10.292-23.775l-.478 5.465-25.904-9.795.728-8.328 27.223-5.268-.59 6.735-21.52 3.744zm2.875-20.524l-25.979-5.996 1.38-5.977 9.535 2.2 1.03-4.455c.5-2.17 1.126-3.873 1.89-5.112.76-1.24 1.917-2.137 3.473-2.68 1.555-.545 3.22-.606 4.998-.195 2.41.557 4.23 1.77 5.46 3.642 1.23 1.88 1.486 4.387.76 7.53zm-3.533-7.11l1.034-4.476c.566-2.45-.29-3.932-2.556-4.456-2.273-.524-3.684.402-4.236 2.792l-1.055 4.567zm-6.266-45.456l24.718 9.986-2.297 5.687-10.192-4.12-3.125 7.734 10.193 4.118-2.297 5.687-24.72-9.987 2.298-5.686 9.636 3.892 3.126-7.731-9.638-3.894zm27.302 4.36l-22.36-14.52 3.342-5.143 8.207 5.33 2.49-3.83c1.21-1.867 2.385-3.26 3.528-4.162 1.138-.907 2.528-1.347 4.176-1.326 1.648.02 3.235.525 4.767 1.52 2.076 1.348 3.37 3.11 3.884 5.296.516 2.18-.106 4.63-1.863 7.336zm-.887-7.888l2.5-3.846c1.367-2.11 1.075-3.8-.876-5.068-1.958-1.27-3.605-.877-4.937 1.175l-2.553 3.93zm13.704-11.848l-22.36-14.52 3.34-5.144 22.36 14.52zm9.835-15.608l1.9 1.834-4.26 4.412-19.18-18.52 4.262-4.41 8.176 7.895a98.45 98.45 0 0 1 4.138 4.237c-.935-2.313-1.56-4.306-1.885-5.974l-2.12-10.77-1.996-1.926 4.26-4.412 19.177 18.52-4.26 4.412-8.71-8.41c-1.462-1.413-2.62-2.604-3.46-3.584.85 1.998 1.473 3.99 1.857 5.974zm-25.81-19.3l2.13-2.205c1.376 1.033 2.712.877 4.013-.47 1.34-1.386 1.462-2.74.372-4.07l2.13-2.207c1.11 1.386 1.634 2.82 1.57 4.306-.058 1.49-.7 2.863-1.922 4.13-1.148 1.19-2.447 1.87-3.9 2.052-1.45.186-2.916-.33-4.393-1.535zm277.276 7.302l-7.12 6.877-4.414-4.57 19.178-18.52 7.303 7.563c1.625 1.683 2.69 3.15 3.195 4.393.502 1.24.633 2.662.38 4.26-.246 1.6-1.045 3.047-2.397 4.353a9.947 9.947 0 0 1-3.31 2.11c-1.257.493-2.48.646-3.65.46-1.177-.19-2.16-.518-2.95-.998-.788-.48-1.842-1.4-3.162-2.767zm3.335-3.525l2.825 2.926c1.074 1.11 2.088 1.642 3.036 1.598.95-.045 1.76-.394 2.423-1.033.776-.75 1.15-1.602 1.128-2.545-.026-.948-.532-1.923-1.52-2.945l-2.81-2.91zm4.97 29.758c-2.06-2.942-2.547-5.996-1.47-9.152 1.08-3.155 3.188-5.828 6.328-8.027 3.19-2.232 6.418-3.28 9.697-3.143 3.273.142 5.972 1.72 8.087 4.74 2.134 3.046 2.606 6.15 1.415 9.295-1.192 3.145-3.253 5.745-6.186 7.8-3.167 2.216-6.4 3.283-9.696 3.214-3.293-.078-6.022-1.65-8.175-4.725zm18.44-12.692c-1.884-2.692-5.184-2.383-9.896.916-4.725 3.308-6.15 6.307-4.264 9 1.82 2.6 5.093 2.252 9.806-1.048 4.724-3.307 6.175-6.268 4.354-8.868zm13.878 34.403l-3.338-5.638c3.314-1.794 4.324-3.954 3.034-6.484-1.478-2.9-4.8-3.032-9.962-.402-2.982 1.52-4.802 2.94-5.463 4.272-.66 1.332-.63 2.7.094 4.12 1.167 2.293 3.382 2.938 6.635 1.924l2.416 5.563c-3.017 1.096-5.717 1.14-8.1.124-2.38-1.018-4.224-2.802-5.53-5.368-1.602-3.142-1.817-6.25-.65-9.32 1.17-3.08 3.663-5.586 7.494-7.54 3.582-1.824 7.007-2.37 10.256-1.633 3.26.74 5.728 2.753 7.408 6.05 2.908 5.707 1.475 10.486-4.295 14.33zm16.25 14.217l-4.888 1.976-2.475-6.126-19.83 8.012-2.37-5.867 19.83-8.012-2.488-6.155 4.89-1.975zm-22.375 19.355c-.99-3.454-.456-6.5 1.59-9.132 2.048-2.633 4.912-4.474 8.597-5.53 3.742-1.074 7.137-1.013 10.192.184 3.05 1.2 5.087 3.57 6.104 7.113 1.026 3.576.462 6.664-1.688 9.25-2.15 2.587-4.947 4.373-8.388 5.36-3.717 1.066-7.12 1.022-10.214-.115-3.09-1.147-5.157-3.522-6.192-7.13zm21.57-5.998c-.907-3.16-4.127-3.942-9.658-2.356-5.543 1.59-7.865 3.962-6.96 7.12.875 3.052 4.082 3.79 9.613 2.204 5.543-1.59 7.88-3.917 7.004-6.968zm8.267 14.62l1.73 12.305c.31 2.204.272 3.9-.113 5.084a7.313 7.313 0 0 1-1.938 3.073c-.903.86-2.073 1.396-3.518 1.6-2.932.41-5.103-.906-6.532-3.937-.152 1.886-.778 3.374-1.877 4.464-1.1 1.09-2.368 1.734-3.808 1.936-1.975.277-3.79-.228-5.432-1.525-1.65-1.29-2.71-3.625-3.183-6.986l-1.73-12.306zm-3.793 6.827l-5.783.814.657 4.68c.24 1.717.73 2.746 1.472 3.1.735.347 1.413.48 2.034.393.673-.095 1.222-.36 1.652-.797.437-.432.685-.878.74-1.337.065-.453.003-1.326-.178-2.613zm-10.483 1.475l-6.365.894.67 4.76c.227 1.623.672 2.73 1.334 3.32.66.592 1.5.81 2.516.668.852-.12 1.547-.54 2.07-1.274.53-.734.69-1.847.48-3.34zm7.73 39.142l-.64-6.52c3.76-.226 5.588-1.757 5.49-4.596-.115-3.25-3.07-4.774-8.86-4.572-3.344.116-5.594.635-6.756 1.563-1.162.93-1.71 2.182-1.656 3.774.09 2.572 1.824 4.093 5.202 4.55l-.162 6.06c-3.198-.28-5.665-1.382-7.393-3.31-1.73-1.927-2.646-4.323-2.747-7.2-.123-3.526.997-6.433 3.35-8.724 2.363-2.297 5.682-3.513 9.98-3.663 4.017-.14 7.352.81 9.985 2.853 2.64 2.05 4.028 4.916 4.157 8.613.223 6.403-3.095 10.128-9.95 11.174zm8.315 10.41l-12.447-1.53 11.428 9.827-.73 5.935-8.66-7.52-17.995 5.858.84-6.84 12.12-3.846-4.95-4.39-6.066-.745.747-6.087 26.462 3.25zm-30.972 21.14c.747-3.515 2.65-5.953 5.692-7.317 3.044-1.364 6.436-1.645 10.186-.848 3.81.81 6.778 2.457 8.914 4.948 2.128 2.49 2.816 5.54 2.05 9.146-.774 3.64-2.722 6.1-5.835 7.375-3.114 1.275-6.42 1.54-9.923.796-3.782-.804-6.767-2.44-8.964-4.898-2.19-2.462-2.9-5.53-2.12-9.202zm21.86 4.83c.683-3.215-1.793-5.418-7.42-6.614-5.64-1.2-8.805-.195-9.488 3.02-.66 3.104 1.825 5.26 7.453 6.457 5.64 1.2 8.795.24 9.455-2.863zm-24.534 13.988l-2.465-.946 2.198-5.727 24.89 9.554-2.2 5.726-10.61-4.073a98.76 98.76 0 0 1-5.466-2.283c1.766 1.763 3.12 3.353 4.07 4.76l6.16 9.086 2.59.994-2.198 5.725-24.89-9.553 2.198-5.728 11.303 4.34c1.9.728 3.43 1.373 4.588 1.946-1.564-1.507-2.917-3.098-4.045-4.773zm31.3 7.68l-1.1 2.864c-1.67-.413-2.84.252-3.51 2-.69 1.8-.274 3.095 1.248 3.893l-1.1 2.863c-1.56-.843-2.605-1.957-3.127-3.35-.527-1.396-.474-2.91.157-4.553.592-1.544 1.52-2.68 2.788-3.415 1.262-.737 2.813-.834 4.644-.302zm-52.498 27.462c2.01-2.98 4.686-4.526 8.02-4.65 3.33-.125 6.582.885 9.76 3.03 3.228 2.176 5.364 4.815 6.41 7.925 1.04 3.107.536 6.192-1.525 9.248-2.08 3.085-4.81 4.638-8.172 4.653-3.363.016-6.53-.978-9.497-2.98-3.206-2.162-5.36-4.798-6.477-7.9-1.106-3.102-.616-6.213 1.482-9.325zm18.46 12.668c1.837-2.725.366-5.695-4.403-8.912-4.782-3.225-8.092-3.48-9.93-.754-1.775 2.63-.278 5.562 4.492 8.78 4.78 3.223 8.065 3.517 9.84.886zm-25.37-2.111l20.422 17.136-11.476 13.677-3.666-3.076 7.533-8.977-4.458-3.74-2.89 3.44c-1.498 1.788-2.854 3.06-4.075 3.812-1.217.754-2.587 1.05-4.105.898-1.523-.155-2.992-.822-4.406-2.008-1.965-1.65-2.992-3.54-3.083-5.66-.086-2.127.773-4.26 2.58-6.415zm-.082 7.937l-3.09 3.683c-.728.868-1.065 1.725-1.005 2.577.065.846.465 1.582 1.2 2.2 1.59 1.332 3.246.964 4.978-1.1l2.763-3.293zm-15.715 9.693l4.078-3.67 12.265 24.83-6.213 5.593-23.502-14.713 5.024-4.523 18.294 11.938zm-7.954 40.765l-22.417-16.666 5.437-3.95 4.536 3.486 6.984-5.074-1.866-5.427 4.423-3.214 8.767 26.584zm-3.783-17.333l-4.58 3.327 7.785 5.906zm-29.376 24.621l5.58-3.437c1.85 3.282 4.028 4.254 6.536 2.92 2.872-1.527 2.947-4.85.227-9.966-1.57-2.955-3.023-4.75-4.367-5.388-1.343-.638-2.71-.583-4.117.165-2.273 1.208-2.88 3.433-1.81 6.67l-5.52 2.512c-1.147-3-1.24-5.698-.264-8.097.975-2.398 2.726-4.273 5.27-5.625 3.113-1.656 6.217-1.925 9.308-.812 3.1 1.115 5.648 3.565 7.667 7.362 1.888 3.55 2.496 6.964 1.814 10.226-.685 3.272-2.653 5.776-5.92 7.513-5.657 3.008-10.46 1.657-14.405-4.044zm-14.577 16.317l-1.976-4.89 6.126-2.474-8.01-19.83 5.865-2.37 8.01 19.83 6.157-2.487 1.976 4.89zm-15.153-20.564l-.638-2.56 5.95-1.485 6.45 25.868-5.95 1.484-2.75-11.03a98.565 98.565 0 0 1-1.265-5.785c-.432 2.457-.958 4.478-1.565 6.066l-3.91 10.258.672 2.69-5.95 1.484-6.45-25.868 5.95-1.484 2.93 11.747c.492 1.973.84 3.597 1.036 4.874.338-2.144.865-4.165 1.59-6.05zm-139.726-316.623c-3.717 1.88-7.054 2.455-10.013 1.728-2.964-.724-5.39-2.608-7.287-5.644-1.897-3.036-2.523-6.035-1.883-9.003.643-2.977 2.624-5.725 5.947-8.263l-1.986-3.18 5.014-3.13 1.986 3.178c3.764-1.89 7.112-2.464 10.058-1.728 2.94.74 5.354 2.62 7.243 5.644 1.898 3.038 2.53 6.032 1.89 9-.63 2.97-2.617 5.722-5.953 8.268l2 3.2-5.014 3.13zm-10.524-16.84c-2.862 2.956-3.26 6.097-1.18 9.426 2.08 3.33 5.078 4.35 8.99 3.07zm12.823 9.365c2.876-2.964 3.28-6.11 1.2-9.438-2.08-3.328-5.084-4.345-9.01-3.058zm29.878-6.185c-3.857 1.48-7.4 1.174-10.62-.907-3.222-2.082-5.618-5.178-7.198-9.293-1.604-4.18-1.876-8.075-.81-11.695 1.068-3.613 3.58-6.186 7.537-7.706 3.993-1.534 7.588-1.197 10.766 1.007 3.178 2.204 5.506 5.228 6.98 9.072 1.594 4.15 1.886 8.054.892 11.712-1.004 3.654-3.518 6.26-7.547 7.808zm-9.032-24.11c-3.528 1.356-4.102 5.124-1.73 11.3 2.375 6.19 5.326 8.615 8.854 7.26 3.407-1.308 3.93-5.056 1.56-11.233-2.376-6.19-5.277-8.634-8.684-7.326zm41.986-17.578l6.897 29.873-6.872 1.587-2.844-12.318-9.345 2.157 2.843 12.32-6.874 1.584-6.896-29.873 6.872-1.587 2.69 11.646 9.344-2.158-2.69-11.645zm12.395 23.16l5.85-24.97 11.07-.192 6.796 24.748 2.96-.052.213 12.242-4.646.08-.856-6.432-18.91.33-.6 6.46-4.632.08-.213-12.242zm6.216-.108l9.835-.172-4.641-18.99-1.21.022zm45.706 8.946c-4.07-.717-6.947-2.805-8.637-6.248-1.69-3.443-2.148-7.33-1.383-11.672.778-4.41 2.55-7.888 5.33-10.442 2.776-2.547 6.253-3.46 10.43-2.723 4.21.743 7.12 2.883 8.708 6.41 1.59 3.526 2.027 7.316 1.312 11.37-.772 4.38-2.533 7.876-5.27 10.5-2.74 2.615-6.24 3.555-10.49 2.806zm4.675-25.317c-3.722-.656-6.155 2.278-7.304 8.793-1.15 6.53.13 10.128 3.852 10.784 3.594.634 5.973-2.31 7.122-8.825 1.152-6.53-.076-10.118-3.67-10.752zm25.49 33.79l1.918-26.043-8.96 23.34-5.625-2.16 10.987-28.62 10.443 4.01-1.56 19.06 11.86-15.107 10.463 4.018-10.987 28.622-6.756-2.594 8.96-23.34-16.147 20.582zm54.446 7.634l-6.63-3.582c2.205-3.73 1.92-6.458-.85-8.188-3.173-1.983-6.526-.146-10.057 5.504-2.04 3.265-2.992 5.744-2.854 7.447.137 1.705.98 3.035 2.533 4.006 2.51 1.568 5.074.893 7.68-2.035l5.677 4.053c-2.326 2.87-4.962 4.513-7.91 4.92-2.95.41-5.824-.257-8.633-2.012-3.44-2.15-5.493-5.086-6.162-8.804-.672-3.728.303-7.675 2.924-11.87 2.45-3.92 5.5-6.488 9.14-7.684 3.652-1.2 7.278-.68 10.886 1.576 6.248 3.904 7.665 9.463 4.255 16.672z" fill="#fff" fill-rule="evenodd"/></svg>