<?xml version="1.0" encoding="utf-8"?>
<!-- Generator: Adobe Illustrator 23.1.0, SVG Export Plug-In . SVG Version: 6.00 Build 0)  -->
<svg version="1.1" id="Слой_1" xmlns="http://www.w3.org/2000/svg" xmlns:xlink="http://www.w3.org/1999/xlink" x="0px" y="0px"
	 viewBox="0 0 390 145.5" style="enable-background:new 0 0 390 145.5;" xml:space="preserve">
<style type="text/css">
	.st0{display:none;}
	.st1{display:inline;fill:#3E9892;}
	.st2{display:inline;fill:#1A7977;}
	.st3{display:inline;fill:#55C8C0;}
	.st4{fill:#1a7977;}
	.st5{font-family:'FranklinGothic-Medium';}
	.st6{font-size:45px;}
	.st8{font-size:23px;}
	.st9{fill:url(#SVGID_1_);}
	.st10{fill:url(#SVGID_2_);}
</style>
<g class="st0">
	<polygon class="st1" points="97,97 48.5,48.5 48.5,0 97,0 	"/>
	<rect x="48.5" y="97" class="st1" width="48.5" height="48.5"/>
	<polygon class="st2" points="97,97 0,97 0,48.5 48.5,48.5 	"/>
	<rect x="97" y="48.5" class="st2" width="48.5" height="48.5"/>
	<polygon class="st3" points="48.5,104.5 97,97 48.5,97 	"/>
	<polygon class="st3" points="104.5,48.5 97,97 97,48.5 	"/>
</g>
<text transform="matrix(1 0 0 1 174 72.75)" class="st4 st5 st6">ГБУ РО ЦРБ</text>
<text transform="matrix(1 0 0 1 174 97)" class="st4 st5 st8">в Волгодонском районе</text>
<g>
	
		<linearGradient id="SVGID_1_" gradientUnits="userSpaceOnUse" x1="2.7797" y1="145.8275" x2="94.6933" y2="53.9138" gradientTransform="matrix(1 0 0 -1 0 148)">
		<stop  offset="0" style="stop-color:#14B0B6"/>
		<stop  offset="0.8166" style="stop-color:#86CDD3"/>
	</linearGradient>
	<path class="st9" d="M74,80.4c2-3.5,3.4-7.3,4.8-11.4c1.5-4.2,3-8.6,5.4-12.6c3.2-5.3,7.8-9.7,13.3-12.7V10.4
		c0-4.2-3.5-7.6-7.8-7.6H58.4c-4.3,0-7.8,3.4-7.8,7.6v39.6H9.9c-4.3,0-7.8,3.4-7.8,7.6V88c0,4.2,3.5,7.6,7.8,7.6h40.3
		C60,94.4,69.1,88.7,74,80.4z"/>
	
		<linearGradient id="SVGID_2_" gradientUnits="userSpaceOnUse" x1="80.2218" y1="69.6445" x2="142.7842" y2="7.0821" gradientTransform="matrix(1 0 0 -1 0 148)">
		<stop  offset="0" style="stop-color:#14B0B6"/>
		<stop  offset="0.8166" style="stop-color:#86CDD3"/>
	</linearGradient>
	<path class="st10" d="M138,49.9H97.5c-3.5,2.4-6.4,5.5-8.6,9.1c-2.1,3.6-3.5,7.5-4.9,11.6c-1.4,4.1-2.9,8.4-5.2,12.4
		C73,92.9,62.1,99.7,50.6,101v34.2c0,4.2,3.5,7.6,7.8,7.6h31.2c4.3,0,7.8-3.4,7.8-7.6V95.6H138c4.3,0,7.8-3.4,7.8-7.6V57.5
		C145.8,53.3,142.4,49.9,138,49.9z"/>
</g>
</svg>
