<?xml version="1.0" standalone="no"?>
<!DOCTYPE svg PUBLIC "-//W3C//DTD SVG 20010904//EN"
 "http://www.w3.org/TR/2001/REC-SVG-20010904/DTD/svg10.dtd">
<svg version="1.0" xmlns="http://www.w3.org/2000/svg"
 width="546.000000pt" height="546.000000pt" viewBox="0 0 546.000000 546.000000"
 preserveAspectRatio="xMidYMid meet">
<metadata>
Created by potrace 1.11, written by Peter Selinger 2001-2013
</metadata>
<g transform="translate(0.000000,546.000000) scale(0.100000,-0.100000)"
fill="#000000" stroke="none">
<path d="M1999 5420 c-52 -27 -124 -112 -143 -167 -14 -41 -16 -141 -16 -839
l0 -793 -802 -3 -803 -3 -51 -23 c-60 -27 -123 -89 -156 -152 l-23 -45 0 -670
0 -670 23 -45 c33 -63 96 -125 156 -152 l51 -23 789 -3 c868 -3 863 -3 1050
59 178 59 319 148 468 295 159 157 237 297 353 634 116 336 177 474 273 620
76 114 253 289 364 360 l87 55 0 676 c1 763 4 730 -76 819 -87 97 -26 90 -815
90 -663 -1 -695 -2 -729 -20z"/>
<path d="M3552 3561 c-197 -170 -301 -335 -413 -658 -181 -526 -267 -685 -478
-885 -194 -185 -466 -326 -711 -368 -36 -6 -75 -13 -87 -16 l-23 -4 0 -695 c0
-668 1 -696 20 -747 13 -35 37 -70 67 -100 87 -84 27 -78 803 -78 787 0 726
-7 813 90 81 90 77 42 77 936 l0 793 803 3 802 3 51 23 c60 27 123 89 156 152
l23 45 0 670 0 670 -23 45 c-33 63 -96 125 -156 152 l-51 23 -802 3 -802 3
-69 -60z"/>
</g>
</svg>
